<svg width="1065" height="791" viewBox="0 0 1065 791" fill="none" xmlns="http://www.w3.org/2000/svg">
    <g opacity="0.53">
        <circle cx="46.5" cy="573.5" r="25.5" fill="#4F7155"/>
        <circle cx="1000.5" cy="95.5" r="25.5" fill="#4F7155"/>
        <circle cx="31.5" cy="647.5" r="31.5" fill="#4F7155"/>
        <circle cx="24" cy="720" r="23" fill="#4F7155"/>
        <circle cx="24" cy="784" r="23" fill="#4F7155"/>
        <circle cx="87.5" cy="459.5" r="25.5" fill="#4F7155"/>
        <circle cx="115.5" cy="407.5" r="18.5" fill="#4F7155"/>
        <circle cx="945.5" cy="79.5" r="18.5" fill="#4F7155"/>
        <circle cx="1062.5" cy="123.5" r="28.5" fill="#4F7155"/>
        <circle cx="147.5" cy="355.5" r="24.5" fill="#4F7155"/>
        <circle cx="887.5" cy="60.5" r="24.5" fill="#4F7155"/>
        <circle cx="183" cy="308" r="18" fill="#4F7155"/>
        <circle cx="222.5" cy="259.5" r="24.5" fill="#4F7155"/>
        <circle cx="292" cy="200" r="48" fill="#4F7155"/>
        <circle cx="370.5" cy="148.5" r="30.5" fill="#4F7155"/>
        <circle cx="430.5" cy="113.5" r="21.5" fill="#4F7155"/>
        <circle cx="491.5" cy="89.5" r="28.5" fill="#4F7155"/>
        <circle cx="556.5" cy="67.5" r="19.5" fill="#4F7155"/>
        <circle cx="621.5" cy="56.5" r="28.5" fill="#4F7155"/>
        <circle cx="703" cy="47" r="38" fill="#4F7155"/>
        <circle cx="802" cy="46" r="46" fill="#4F7155"/>
        <circle cx="62.5" cy="515.5" r="20.5" fill="#4F7155"/>
    </g>
</svg>
